<?xml version="1.0" standalone="no"?>
<!DOCTYPE svg PUBLIC "-//W3C//DTD SVG 20010904//EN"
 "http://www.w3.org/TR/2001/REC-SVG-20010904/DTD/svg10.dtd">
<svg version="1.0" xmlns="http://www.w3.org/2000/svg"
 width="500.000000pt" height="500.000000pt" viewBox="0 0 500.000000 500.000000"
 preserveAspectRatio="xMidYMid meet">

<g transform="translate(0.000000,500.000000) scale(0.100000,-0.100000)"
fill="#000000" stroke="none">
<path d="M1903 4343 c10 -15 -36 -22 -86 -12 -50 10 -82 -8 -110 -62 -39 -74
5 -159 102 -196 69 -27 210 -25 248 3 120 88 53 238 -121 270 -26 4 -37 3 -33
-3z m46 -179 c9 -8 -65 -2 -84 6 -13 6 -2 7 30 3 28 -3 52 -7 54 -9z"/>
<path d="M4225 4157 c-17 -13 -17 -14 10 -21 34 -9 44 0 24 19 -13 13 -18 13
-34 2z"/>
<path d="M3643 4100 c-46 -20 -55 -33 -72 -105 -7 -27 -19 -58 -28 -67 -18
-20 -9 -76 13 -85 18 -7 79 18 65 26 -15 9 -9 53 6 47 7 -3 10 1 7 8 -2 6 14
45 36 85 45 82 45 84 27 99 -9 8 -24 6 -54 -8z"/>
<path d="M4061 4098 c-11 -13 -35 -43 -53 -68 -19 -25 -97 -100 -173 -167 -77
-68 -145 -135 -152 -151 -6 -15 -13 -54 -14 -87 -3 -57 -2 -59 25 -66 38 -10
62 -34 88 -86 l22 -43 -24 -25 c-24 -25 -24 -25 -35 -5 -11 20 -12 20 -26 3
-9 -10 -22 -33 -29 -51 -10 -25 -15 -30 -26 -21 -10 8 -20 3 -44 -22 -16 -19
-30 -37 -30 -42 0 -5 -10 -7 -22 -4 -13 4 -42 -4 -72 -19 -48 -24 -51 -25 -64
-7 -8 11 -11 30 -8 47 10 51 60 150 101 201 56 68 56 70 66 133 4 32 11 69 14
84 6 22 1 33 -23 58 -35 35 -92 41 -130 14 -30 -21 -59 -79 -67 -139 -10 -68
-33 -123 -57 -136 -13 -7 -46 -8 -88 -4 -82 8 -83 7 -100 -115 -6 -47 -13 -86
-14 -87 -1 -2 -16 3 -34 9 -27 10 -34 9 -51 -7 -25 -22 -27 -47 -5 -80 16 -24
20 -25 128 -25 148 -1 241 -14 342 -49 150 -51 236 -124 266 -224 14 -47 33
-64 52 -47 8 6 36 20 62 30 l48 18 -49 25 c-28 14 -58 34 -68 45 -25 27 -32
87 -17 141 11 42 12 43 46 37 28 -6 34 -4 34 10 0 10 -9 28 -21 40 l-20 22 31
63 c18 35 39 81 46 102 35 99 159 233 266 286 64 32 108 38 154 21 35 -14 63
-4 75 27 11 29 -2 59 -31 68 -28 9 -223 -41 -295 -76 -33 -16 -91 -52 -128
-81 -127 -98 -129 -99 -166 -96 -46 4 -58 25 -42 78 15 52 144 189 264 282
115 89 147 122 147 151 0 55 -61 76 -99 35z m-265 -333 c-23 -17 -36 -19 -36
-6 0 5 8 12 18 14 32 9 37 6 18 -8z m304 -85 c-73 -44 -92 -50 -64 -19 24 26
83 58 109 59 12 0 -6 -16 -45 -40z m-547 -59 c-28 -32 -54 -41 -52 -18 1 19
17 54 18 39 1 -9 9 -7 28 8 37 29 41 11 6 -29z m-66 -107 c8 -22 -19 -71 -71
-128 -65 -71 -82 -58 -48 36 30 83 101 138 119 92z m361 -329 c-3 -3 -9 2 -12
12 -6 14 -5 15 5 6 7 -7 10 -15 7 -18z"/>
<path d="M2924 4068 c-39 -34 -78 -109 -89 -171 -10 -50 2 -93 37 -133 26 -30
36 -34 78 -34 38 0 55 6 81 27 34 29 85 126 69 131 -14 5 -12 34 5 87 19 53
10 76 -38 105 -49 31 -99 26 -143 -12z"/>
<path d="M4565 3898 c-67 -23 -75 -28 -75 -48 0 -26 43 -54 72 -46 29 7 82 72
74 92 -6 16 -27 17 -71 2z m51 -9 c10 -16 -41 -63 -60 -56 -9 4 -16 14 -16 24
0 15 1 16 13 0 11 -15 14 -14 36 4 21 17 22 22 10 30 -9 5 -10 9 -2 9 6 0 15
-5 19 -11z"/>
<path d="M4043 3833 c-21 -8 -15 -20 13 -27 32 -8 41 -1 24 19 -13 16 -17 17
-37 8z"/>
<path d="M506 3667 c-32 -23 -15 -50 51 -82 88 -43 91 -47 92 -116 0 -66 32
-189 89 -337 19 -51 33 -94 31 -97 -8 -8 -146 31 -173 49 -32 20 -62 66 -78
119 -14 47 -50 87 -78 87 l-21 0 20 -37 c11 -21 32 -64 46 -96 31 -66 82 -107
173 -138 31 -11 82 -32 112 -47 49 -24 60 -35 97 -102 48 -86 52 -102 21 -73
-25 23 -149 87 -188 97 l-25 7 26 -20 c40 -31 136 -162 164 -223 14 -30 36
-105 50 -166 13 -61 31 -125 39 -141 21 -40 64 -74 139 -109 45 -22 77 -46
108 -83 100 -118 101 -118 240 -144 l37 -7 -36 104 c-32 90 -37 115 -37 198 0
90 2 99 35 160 20 37 72 103 122 156 l88 91 -83 7 c-45 4 -96 7 -113 6 -38 -1
-125 55 -242 153 -149 126 -286 227 -308 227 -23 0 -113 89 -157 155 -29 45
-72 197 -63 222 6 14 8 14 24 1 9 -9 22 -14 28 -11 7 2 24 -17 38 -42 15 -25
29 -45 31 -45 2 0 -6 23 -18 51 -24 55 -117 165 -181 211 -43 31 -72 35 -100
15z m483 -1252 c0 -20 0 -20 -14 -1 -8 11 -15 38 -14 60 l1 41 13 -40 c8 -22
14 -49 14 -60z"/>
<path d="M2340 3670 c0 -8 -22 -10 -71 -8 -69 2 -72 1 -95 -27 -48 -60 -43
-126 13 -175 42 -37 61 -45 141 -60 79 -14 134 -1 178 41 46 44 51 79 22 137
-17 35 -34 52 -68 69 -56 27 -120 40 -120 23z m39 -166 c9 -8 -55 -2 -74 6
-13 6 -5 7 25 3 25 -3 47 -7 49 -9z"/>
<path d="M364 3586 c-10 -25 19 -70 56 -88 45 -23 110 -24 110 -2 0 8 -4 12
-10 9 -5 -3 -8 0 -5 7 2 8 -21 28 -60 51 -71 41 -83 44 -91 23z m99 -74 c30
-9 30 -10 7 -11 -31 -1 -50 16 -49 44 2 19 2 19 6 -1 2 -13 16 -25 36 -32z"/>
<path d="M1538 3449 c-29 -16 -21 -33 23 -47 59 -18 76 -3 39 36 -23 24 -36
27 -62 11z m35 -16 c-7 -2 -19 -2 -25 0 -7 3 -2 5 12 5 14 0 19 -2 13 -5z"/>
<path d="M553 3423 c-21 -8 -15 -20 13 -27 32 -8 41 -1 24 19 -13 16 -17 17
-37 8z"/>
<path d="M2869 3419 c-34 -12 -51 -53 -47 -110 3 -46 25 -64 47 -37 5 7 26 32
45 54 43 50 46 81 10 94 -14 6 -26 10 -27 9 -1 0 -14 -5 -28 -10z m15 -45 c9
-3 16 -11 16 -16 0 -6 -6 -5 -15 2 -12 10 -16 8 -24 -11 -28 -74 -30 -76 -24
-34 3 22 10 46 16 53 11 14 10 14 31 6z"/>
<path d="M4172 3338 c-7 -7 -12 -20 -12 -31 0 -10 -10 -36 -22 -57 -18 -32
-21 -43 -12 -57 15 -23 68 -21 96 4 17 15 19 26 14 70 -3 28 -9 58 -12 67 -7
19 -35 21 -52 4z m41 -59 c2 -41 0 -44 -25 -47 -16 -2 -28 1 -28 6 0 6 9 8 20
5 18 -5 20 0 20 42 0 44 -1 46 -17 34 -16 -13 -17 -12 -4 4 19 25 31 9 34 -44z"/>
<path d="M1447 3334 c-11 -12 3 -24 28 -24 18 0 23 4 19 15 -6 15 -35 20 -47
9z"/>
<path d="M1732 3278 c-26 -26 -11 -89 31 -135 24 -27 20 -33 -32 -43 -63 -11
-155 7 -326 64 -193 66 -389 112 -300 71 30 -13 30 -13 5 -15 -14 -1 -29 -2
-34 -1 -20 4 -67 -12 -59 -19 10 -10 99 -35 194 -55 41 -9 121 -38 179 -64
136 -64 196 -80 324 -90 110 -9 145 -23 191 -77 18 -21 23 -22 45 -11 14 7 61
28 105 47 84 35 109 50 85 50 -31 0 -141 60 -186 102 -25 23 -60 63 -77 88
-48 72 -78 100 -107 100 -14 0 -31 -5 -38 -12z m58 -77 c17 -33 11 -48 -10
-22 -11 13 -20 27 -20 32 0 16 19 9 30 -10z m10 -132 c0 -20 -215 -17 -235 3
-2 2 50 3 116 3 65 0 119 -3 119 -6z"/>
<path d="M2488 3262 c-45 -34 -116 -140 -77 -116 8 4 9 -1 4 -17 -17 -58 -30
-89 -37 -89 -4 0 -8 -13 -8 -28 0 -55 91 -117 153 -105 37 7 101 65 131 119
56 99 57 169 4 229 -27 32 -35 35 -82 35 -39 -1 -59 -7 -88 -28z m80 -169 c-6
-16 -18 -35 -26 -43 -8 -8 -5 4 7 28 24 47 37 57 19 15z"/>
<path d="M1550 3268 c-14 -5 -45 -15 -70 -22 -34 -8 -46 -16 -48 -33 -4 -29
52 -49 94 -33 34 13 84 58 84 76 0 9 -25 27 -33 23 -1 0 -13 -5 -27 -11z m16
-39 c-25 -22 -41 -29 -56 -24 -11 3 -20 11 -20 17 0 6 6 6 15 -2 12 -10 21 -8
48 13 45 36 55 33 13 -4z"/>
<path d="M2307 3103 c-4 -3 -7 -18 -7 -32 0 -19 3 -22 12 -13 7 7 25 12 40 12
21 0 28 5 28 20 0 16 -7 20 -33 20 -19 0 -37 -3 -40 -7z"/>
<path d="M2685 2895 c-55 -7 -122 -22 -150 -33 -76 -31 -165 -75 -212 -105
-23 -15 -102 -59 -175 -98 -172 -92 -306 -182 -394 -266 -76 -73 -139 -159
-153 -211 -9 -31 -8 -33 28 -52 21 -10 76 -29 122 -42 77 -21 104 -23 319 -23
218 1 244 3 365 29 122 26 239 56 293 77 l23 9 -30 30 c-25 26 -29 35 -21 55
22 58 41 81 82 102 24 12 88 44 143 71 55 27 118 59 140 71 41 22 90 28 100
12 3 -6 -10 -13 -29 -17 -20 -3 -40 -12 -47 -20 -6 -8 -16 -11 -21 -8 -5 4
-23 -9 -39 -27 -22 -27 -30 -31 -37 -20 -5 7 -12 9 -15 4 -3 -5 7 -17 24 -27
16 -9 27 -21 25 -25 -3 -4 -1 -13 5 -21 6 -11 9 -11 10 -2 1 6 2 18 3 25 1 6
-3 15 -9 19 -5 4 4 7 20 7 17 -1 47 2 69 6 31 7 38 5 34 -6 -3 -9 -16 -13 -34
-11 -28 2 -28 2 -10 -13 11 -8 16 -18 11 -22 -4 -5 -10 -2 -12 5 -9 25 -40 13
-46 -18 -6 -28 -27 -43 -27 -19 0 5 -4 8 -9 4 -6 -3 -14 2 -19 11 -7 12 -15
15 -28 9 -17 -7 -17 -9 -2 -12 22 -6 30 -30 12 -37 -9 -3 -12 -1 -9 4 3 6 1
10 -4 10 -14 0 -14 -17 0 -25 6 -4 8 -13 6 -19 -4 -9 3 -11 20 -8 14 3 28 13
30 23 6 21 19 25 25 8 5 -15 165 62 280 134 103 65 180 126 173 137 -3 4 2 13
10 20 34 28 6 100 -58 150 -31 25 -135 65 -197 76 -25 4 -37 9 -27 12 9 2 17
8 17 13 0 5 16 9 35 7 55 -3 51 9 -7 20 -230 42 -416 50 -603 27z"/>
<path d="M634 2816 c-23 -17 -15 -27 37 -42 34 -10 41 -10 46 2 7 18 -24 54
-47 54 -9 0 -25 -6 -36 -14z m50 -15 c3 -4 -6 -6 -19 -3 -14 2 -25 6 -25 8 0
8 39 4 44 -5z"/>
<path d="M3952 2680 c-39 -28 -54 -50 -34 -50 14 0 88 67 81 74 -3 3 -25 -7
-47 -24z"/>
<path d="M4324 2670 c3 -8 9 -23 12 -32 4 -10 10 -18 15 -18 15 0 10 16 -12
41 -11 13 -18 17 -15 9z"/>
<path d="M2905 2356 c0 -15 7 -27 16 -29 14 -4 15 0 5 24 -13 35 -21 37 -21 5z"/>
<path d="M2852 2351 c-11 -6 -9 -9 7 -14 12 -3 22 1 25 9 6 16 -12 18 -32 5z"/>
<path d="M2793 2316 c3 -7 -1 -25 -8 -40 -15 -29 -11 -34 10 -12 8 7 12 22 11
32 -2 10 2 22 8 26 7 5 4 8 -8 8 -11 0 -16 -5 -13 -14z"/>
<path d="M2916 2303 c-17 -5 -16 -7 9 -29 32 -28 45 -30 45 -9 0 8 -7 15 -15
15 -9 0 -12 6 -9 15 6 15 3 16 -30 8z"/>
<path d="M2866 2285 c4 -8 10 -15 15 -15 4 0 6 7 3 15 -4 8 -10 15 -15 15 -4
0 -6 -7 -3 -15z"/>
<path d="M2841 2261 c16 -24 47 -43 60 -36 5 4 6 12 2 18 -5 8 -2 8 9 0 8 -7
18 -10 21 -7 11 12 -4 24 -28 24 -19 0 -23 -4 -19 -17 4 -11 -3 -8 -18 10 -27
31 -44 36 -27 8z"/>
<path d="M2810 2240 c-17 -10 -14 -15 17 -24 13 -4 24 -2 29 5 5 9 2 10 -9 6
-9 -3 -17 0 -19 8 -2 10 -8 12 -18 5z"/>
<path d="M2757 2226 c-5 -14 10 -36 25 -36 4 0 8 5 8 10 0 6 -7 10 -15 10 -9
0 -12 6 -9 15 4 8 4 15 1 15 -3 0 -7 -6 -10 -14z"/>
<path d="M4482 2068 c-11 -31 -5 -47 19 -48 13 0 16 50 5 65 -10 13 -13 11
-24 -17z"/>
<path d="M2390 2033 c-182 -28 -230 -37 -259 -49 -29 -12 -33 -17 -28 -41 22
-108 31 -131 86 -221 l26 -43 72 5 c48 3 80 10 96 23 28 21 66 75 70 100 1 10
6 23 9 29 13 20 30 98 29 129 -2 78 0 75 -40 74 -20 -1 -47 -3 -61 -6z"/>
<path d="M4356 1951 c-10 -11 -15 -25 -11 -30 11 -19 23 -12 34 19 11 34 2 39
-23 11z"/>
<path d="M1830 1520 c0 -11 3 -19 8 -19 16 3 32 -1 32 -9 0 -4 -8 -8 -17 -9
-21 -1 -132 -31 -144 -39 -13 -8 -11 -44 2 -44 6 0 9 -9 6 -20 -3 -11 -1 -18
3 -15 5 3 7 -7 6 -22 -2 -16 -6 -27 -10 -25 -3 1 -10 2 -16 2 -5 0 -10 7 -10
16 0 10 -6 14 -14 11 -7 -3 -18 -1 -24 5 -7 7 -12 3 -17 -11 -3 -12 -10 -21
-15 -21 -4 0 -6 -9 -3 -20 4 -14 0 -20 -11 -20 -21 0 -20 -6 5 -41 23 -33 70
-39 103 -14 26 19 56 19 56 0 0 -8 -4 -15 -10 -15 -5 0 -9 -3 -9 -7 1 -5 1
-17 0 -28 -1 -17 -3 -18 -11 -5 -8 12 -10 11 -10 -7 0 -17 -8 -24 -35 -29 -45
-8 -55 -22 -52 -69 2 -34 7 -42 42 -62 28 -17 52 -23 81 -21 41 3 41 3 33 -24
-8 -30 0 -35 32 -18 26 15 25 -4 -2 -29 -14 -13 -32 -19 -50 -17 -51 6 -31
-13 36 -33 190 -59 835 -57 1045 2 142 41 143 42 135 83 -18 100 -63 121 -168
82 -30 -11 -63 -62 -59 -90 3 -19 -14 -33 -23 -18 -4 6 1 23 10 37 15 23 15
25 2 20 -11 -4 -18 1 -22 14 -4 11 -18 24 -32 30 -32 12 -83 12 -83 -1 0 -11
-50 -34 -57 -26 -3 2 10 12 28 22 l33 17 -32 28 c-40 36 -95 40 -112 9 -6 -11
-7 -20 -2 -20 4 0 9 -20 11 -44 1 -36 -2 -47 -21 -60 -30 -22 -35 -20 -52 12
-15 29 -8 63 21 94 14 16 13 20 -20 53 -27 27 -43 35 -70 35 -33 0 -67 -23
-50 -33 5 -3 7 -24 5 -46 l-4 -40 -36 15 c-49 20 -49 20 -24 54 12 16 22 41
22 54 0 20 10 31 48 50 26 14 42 25 35 26 -7 0 -24 11 -39 25 -15 14 -39 28
-53 32 -14 3 -50 19 -79 35 l-53 30 -39 -21 c-22 -11 -40 -16 -40 -11 0 6 -12
10 -27 11 -25 1 -24 3 17 21 29 14 40 23 30 26 -8 3 -26 18 -40 34 -13 15 -33
28 -43 28 -10 0 -16 4 -13 8 3 5 -15 21 -39 36 -24 16 -52 37 -61 47 -22 24
-34 24 -34 -1z m80 -102 c0 -19 -2 -20 -10 -8 -13 19 -13 30 0 30 6 0 10 -10
10 -22z m-105 -8 c-3 -5 1 -10 11 -10 13 0 14 -3 4 -15 -7 -8 -10 -32 -8 -55
3 -36 2 -39 -10 -23 -7 10 -12 27 -11 38 2 35 -1 46 -11 40 -14 -9 -13 8 2 23
15 15 32 16 23 2z m108 -92 c-20 -22 -43 -61 -43 -72 0 -3 9 -6 20 -6 27 0 25
-10 -10 -48 -16 -18 -30 -37 -30 -41 0 -7 -43 -31 -55 -31 -3 0 -5 13 -5 28 0
18 11 38 30 57 17 16 30 37 30 47 0 20 56 88 73 88 6 0 1 -10 -10 -22z m174
-45 c-3 -10 -5 -4 -5 12 0 17 2 24 5 18 2 -7 2 -21 0 -30z m-377 -2 c0 -5 -7
-12 -16 -15 -14 -5 -15 -4 -4 9 14 17 20 19 20 6z m360 -21 c0 -12 -33 -38
-63 -49 -32 -12 -34 -3 -7 31 18 23 70 37 70 18z m63 -44 c26 -20 4 -29 -28
-12 -17 9 -22 16 -13 19 19 8 21 8 41 -7z m-203 -91 c0 -16 -34 -55 -49 -55
-5 0 -11 6 -14 14 -4 10 0 12 14 9 14 -4 19 0 19 15 0 17 7 25 28 31 1 1 2 -6
2 -14z m65 -53 c-8 -8 -25 10 -19 20 4 6 9 5 15 -3 4 -7 6 -15 4 -17z m-142 5
c3 -7 -1 -24 -8 -37 -12 -23 -13 -23 -24 -2 -13 24 -5 52 14 52 7 0 15 -6 18
-13z m361 -23 c3 -9 6 -27 6 -40 0 -35 -47 -34 -56 1 -10 41 35 77 50 39z
m-289 -14 c15 -16 16 -22 5 -35 -16 -19 -40 -3 -40 27 0 18 -2 19 -17 7 -16
-13 -17 -12 -4 4 18 22 34 22 56 -3z m189 -26 c9 -3 16 -15 16 -26 0 -17 -3
-18 -15 -8 -12 10 -15 10 -15 -2 0 -8 5 -19 12 -26 6 -6 10 -14 7 -16 -8 -8
-80 65 -74 74 7 11 45 13 69 4z m425 -45 c-29 -18 2 -8 38 13 l38 22 -20 -24
c-11 -13 -23 -29 -27 -35 -4 -5 -19 -23 -33 -40 -22 -24 -28 -27 -35 -15 -17
27 -10 61 17 86 17 16 29 21 31 14 3 -7 -2 -16 -9 -21z m-474 -44 c30 -29 35
-38 25 -50 -22 -26 -44 -17 -62 26 -15 35 -16 59 -4 59 2 0 20 -16 41 -35z
m164 -38 c1 -5 -3 -5 -9 -2 -5 3 -10 16 -9 28 0 21 1 21 9 2 5 -11 9 -24 9
-28z m241 13 c0 -5 -6 -10 -14 -10 -8 0 -18 5 -21 10 -3 6 3 10 14 10 12 0 21
-4 21 -10z"/>
<path d="M3397 1442 c-159 -148 -286 -210 -592 -287 -70 -18 -24 -18 78 0 140
24 304 91 427 175 79 54 175 160 144 160 -3 0 -29 -22 -57 -48z"/>
<path d="M3180 844 c-152 -52 -387 -106 -650 -147 -23 -4 -23 -4 4 -6 32 -1
219 29 371 60 94 20 333 95 372 118 29 17 4 11 -97 -25z"/>
<path d="M2443 683 c9 -2 25 -2 35 0 9 3 1 5 -18 5 -19 0 -27 -2 -17 -5z"/>
<path d="M2358 673 c12 -2 30 -2 40 0 9 3 -1 5 -23 4 -22 0 -30 -2 -17 -4z"/>
<path d="M2253 663 c9 -2 25 -2 35 0 9 3 1 5 -18 5 -19 0 -27 -2 -17 -5z"/>
</g>
</svg>
